REM DIRINDEX 1\2\4,1\2\5,1\2\6,1\3\7,1\3\8
REM DIRNAME cjc128,folder01,folder02,folder03,folder04,folder05,folder06,folder07
TITLE ""
FILE "014_Lesson 12_Output_Stage.mp3" MP3
  TRACK 01 AUDIO
    TITLE "0:"
    INDEX 01 00:00:00
  TRACK 02 AUDIO
    TITLE "6:cjc128_0780"
    INDEX 01 00:00:11
  TRACK 03 AUDIO
    TITLE "0:"
    INDEX 01 00:02:69
  TRACK 04 AUDIO
    TITLE "6:cjc128_0781"
    INDEX 01 00:04:11
  TRACK 05 AUDIO
    TITLE "0:"
    INDEX 01 00:06:12
  TRACK 06 AUDIO
    TITLE "4:cjc128_0782"
    INDEX 01 00:07:15
  TRACK 07 AUDIO
    TITLE "0:"
    INDEX 01 00:10:02
  TRACK 08 AUDIO
    TITLE "5:cjc128_0783"
    INDEX 01 00:13:02
  TRACK 09 AUDIO
    TITLE "0:"
    INDEX 01 00:15:32
  TRACK 10 AUDIO
    TITLE "6:cjc128_0784"
    INDEX 01 00:16:10
  TRACK 11 AUDIO
    TITLE "0:"
    INDEX 01 00:18:05
  TRACK 12 AUDIO
    TITLE "4:cjc128_0785"
    INDEX 01 00:18:60
  TRACK 13 AUDIO
    TITLE "0:"
    INDEX 01 00:21:13
  TRACK 14 AUDIO
    TITLE "5:cjc128_0786"
    INDEX 01 00:24:12
  TRACK 15 AUDIO
    TITLE "0:"
    INDEX 01 00:26:22
  TRACK 16 AUDIO
    TITLE "6:cjc128_0787"
    INDEX 01 00:27:04
  TRACK 17 AUDIO
    TITLE "0:"
    INDEX 01 00:28:64
  TRACK 18 AUDIO
    TITLE "4:cjc128_0788"
    INDEX 01 00:29:44
  TRACK 19 AUDIO
    TITLE "0:"
    INDEX 01 00:34:20
  TRACK 20 AUDIO
    TITLE "5:cjc128_0789"
    INDEX 01 00:38:28
  TRACK 21 AUDIO
    TITLE "0:"
    INDEX 01 00:42:00
  TRACK 22 AUDIO
    TITLE "6:cjc128_0790"
    INDEX 01 00:42:51
  TRACK 23 AUDIO
    TITLE "0:"
    INDEX 01 00:44:48
  TRACK 24 AUDIO
    TITLE "4:cjc128_0791"
    INDEX 01 00:45:24
  TRACK 25 AUDIO
    TITLE "0:"
    INDEX 01 00:49:02
  TRACK 26 AUDIO
    TITLE "5:cjc128_0792"
    INDEX 01 00:52:43
  TRACK 27 AUDIO
    TITLE "0:"
    INDEX 01 00:55:42
  TRACK 28 AUDIO
    TITLE "6:cjc128_0793"
    INDEX 01 00:56:27
  TRACK 29 AUDIO
    TITLE "0:"
    INDEX 01 00:58:03
  TRACK 30 AUDIO
    TITLE "4:cjc128_0794"
    INDEX 01 00:58:64
  TRACK 31 AUDIO
    TITLE "0:"
    INDEX 01 01:01:72
  TRACK 32 AUDIO
    TITLE "5:cjc128_0795"
    INDEX 01 01:06:02
  TRACK 33 AUDIO
    TITLE "0:"
    INDEX 01 01:09:54
  TRACK 34 AUDIO
    TITLE "6:cjc128_0796"
    INDEX 01 01:10:35
  TRACK 35 AUDIO
    TITLE "0:"
    INDEX 01 01:12:24
  TRACK 36 AUDIO
    TITLE "4:cjc128_0797"
    INDEX 01 01:13:08
  TRACK 37 AUDIO
    TITLE "0:"
    INDEX 01 01:15:11
  TRACK 38 AUDIO
    TITLE "5:cjc128_0798"
    INDEX 01 01:17:71
  TRACK 39 AUDIO
    TITLE "0:"
    INDEX 01 01:20:18
  TRACK 40 AUDIO
    TITLE "6:cjc128_0799"
    INDEX 01 01:21:00
  TRACK 41 AUDIO
    TITLE "0:"
    INDEX 01 01:22:68
  TRACK 42 AUDIO
    TITLE "4:cjc128_0800"
    INDEX 01 01:23:48
  TRACK 43 AUDIO
    TITLE "0:"
    INDEX 01 01:27:08
  TRACK 44 AUDIO
    TITLE "5:cjc128_0801"
    INDEX 01 01:30:46
  TRACK 45 AUDIO
    TITLE "0:"
    INDEX 01 01:33:44
  TRACK 46 AUDIO
    TITLE "6:cjc128_0802"
    INDEX 01 01:34:26
  TRACK 47 AUDIO
    TITLE "0:"
    INDEX 01 01:36:19
  TRACK 48 AUDIO
    TITLE "4:cjc128_0803"
    INDEX 01 01:37:01
  TRACK 49 AUDIO
    TITLE "0:"
    INDEX 01 01:39:06
  TRACK 50 AUDIO
    TITLE "5:cjc128_0804"
    INDEX 01 01:42:16
  TRACK 51 AUDIO
    TITLE "0:"
    INDEX 01 01:44:44
  TRACK 52 AUDIO
    TITLE "6:cjc128_0805"
    INDEX 01 01:45:30
  TRACK 53 AUDIO
    TITLE "0:"
    INDEX 01 01:47:27
  TRACK 54 AUDIO
    TITLE "4:cjc128_0806"
    INDEX 01 01:48:09
  TRACK 55 AUDIO
    TITLE "0:"
    INDEX 01 01:52:14
  TRACK 56 AUDIO
    TITLE "5:cjc128_0807"
    INDEX 01 01:56:02
  TRACK 57 AUDIO
    TITLE "0:"
    INDEX 01 01:59:24
  TRACK 58 AUDIO
    TITLE "6:cjc128_0808"
    INDEX 01 02:00:04
  TRACK 59 AUDIO
    TITLE "0:"
    INDEX 01 02:02:03
  TRACK 60 AUDIO
    TITLE "4:cjc128_0809"
    INDEX 01 02:02:50
  TRACK 61 AUDIO
    TITLE "0:"
    INDEX 01 02:04:19
  TRACK 62 AUDIO
    TITLE "5:cjc128_0810"
    INDEX 01 02:07:26
  TRACK 63 AUDIO
    TITLE "0:"
    INDEX 01 02:09:62
  TRACK 64 AUDIO
    TITLE "6:cjc128_0811"
    INDEX 01 02:10:45
  TRACK 65 AUDIO
    TITLE "0:"
    INDEX 01 02:12:42
  TRACK 66 AUDIO
    TITLE "4:cjc128_0812"
    INDEX 01 02:13:28
  TRACK 67 AUDIO
    TITLE "0:"
    INDEX 01 02:16:48
  TRACK 68 AUDIO
    TITLE "5:cjc128_0813"
    INDEX 01 02:20:44
  TRACK 69 AUDIO
    TITLE "0:"
    INDEX 01 02:24:00
  TRACK 70 AUDIO
    TITLE "6:cjc128_0814"
    INDEX 01 02:24:59
  TRACK 71 AUDIO
    TITLE "0:"
    INDEX 01 02:26:54
  TRACK 72 AUDIO
    TITLE "4:cjc128_0815"
    INDEX 01 02:27:34
  TRACK 73 AUDIO
    TITLE "0:"
    INDEX 01 02:30:36
  TRACK 74 AUDIO
    TITLE "5:cjc128_0816"
    INDEX 01 02:34:07
  TRACK 75 AUDIO
    TITLE "0:"
    INDEX 01 02:36:74
  TRACK 76 AUDIO
    TITLE "6:cjc128_0817"
    INDEX 01 02:37:62
  TRACK 77 AUDIO
    TITLE "0:"
    INDEX 01 02:39:45
  TRACK 78 AUDIO
    TITLE "4:cjc128_0818"
    INDEX 01 02:40:29
  TRACK 79 AUDIO
    TITLE "0:"
    INDEX 01 02:44:21
  TRACK 80 AUDIO
    TITLE "5:cjc128_0819"
    INDEX 01 02:48:17
  TRACK 81 AUDIO
    TITLE "0:"
    INDEX 01 02:51:60
  TRACK 82 AUDIO
    TITLE "6:cjc128_0820"
    INDEX 01 02:52:34
  TRACK 83 AUDIO
    TITLE "0:"
    INDEX 01 02:54:27
  TRACK 84 AUDIO
    TITLE "4:cjc128_0821"
    INDEX 01 02:55:01
  TRACK 85 AUDIO
    TITLE "0:"
    INDEX 01 02:59:42
  TRACK 86 AUDIO
    TITLE "5:cjc128_0822"
    INDEX 01 03:04:16
  TRACK 87 AUDIO
    TITLE "0:"
    INDEX 01 03:08:39
  TRACK 88 AUDIO
    TITLE "6:cjc128_0823"
    INDEX 01 03:09:15
  TRACK 89 AUDIO
    TITLE "0:"
    INDEX 01 03:10:65
  TRACK 90 AUDIO
    TITLE "4:cjc128_0824"
    INDEX 01 03:11:47
  TRACK 91 AUDIO
    TITLE "0:"
    INDEX 01 03:14:06
  TRACK 92 AUDIO
    TITLE "5:cjc128_0825"
    INDEX 01 03:16:64
  TRACK 93 AUDIO
    TITLE "0:"
    INDEX 01 03:19:13
  TRACK 94 AUDIO
    TITLE "6:cjc128_0826"
    INDEX 01 03:19:66
  TRACK 95 AUDIO
    TITLE "0:"
    INDEX 01 03:21:65
  TRACK 96 AUDIO
    TITLE "4:cjc128_0827"
    INDEX 01 03:22:45
  TRACK 97 AUDIO
    TITLE "0:"
    INDEX 01 03:25:28
  TRACK 98 AUDIO
    TITLE "5:cjc128_0828"
    INDEX 01 03:28:38
  TRACK 99 AUDIO
    TITLE "0:"
    INDEX 01 03:31:20
  TRACK 100 AUDIO
    TITLE "6:cjc128_0829"
    INDEX 01 03:31:73
  TRACK 101 AUDIO
    TITLE "0:"
    INDEX 01 03:33:74
  TRACK 102 AUDIO
    TITLE "4:cjc128_0830"
    INDEX 01 03:34:52
  TRACK 103 AUDIO
    TITLE "0:"
    INDEX 01 03:37:33
  TRACK 104 AUDIO
    TITLE "5:cjc128_0831"
    INDEX 01 03:40:19
  TRACK 105 AUDIO
    TITLE "0:"
    INDEX 01 03:42:36
